<mxfile host="app.diagrams.net" agent="Mozilla/5.0 (Windows NT 10.0; Win64; x64; rv:135.0) Gecko/20100101 Firefox/135.0" version="25.0.3">
  <diagram name="Page-1" id="7U-u6NflCNJCBCTULliD">
    <mxGraphModel dx="600" dy="374" grid="1" gridSize="10" guides="1" tooltips="1" connect="1" arrows="1" fold="1" page="1" pageScale="1" pageWidth="850" pageHeight="1100" math="0" shadow="0">
      <root>
        <mxCell id="0" />
        <mxCell id="1" parent="0" />
        <mxCell id="xdpQrKpkKK69OWnkC5WY-3" value="" style="shape=image;html=1;verticalAlign=top;verticalLabelPosition=bottom;labelBackgroundColor=#ffffff;imageAspect=0;aspect=fixed;image=https://cdn0.iconfinder.com/data/icons/ie_Bright/128/red_guitar.png" vertex="1" parent="1">
          <mxGeometry x="190" y="150" width="128" height="128" as="geometry" />
        </mxCell>
        <mxCell id="xdpQrKpkKK69OWnkC5WY-5" value="&lt;div&gt;Analog Discovery 2&lt;/div&gt;&lt;div&gt;With BNC adapter&lt;/div&gt;" style="rounded=0;whiteSpace=wrap;html=1;" vertex="1" parent="1">
          <mxGeometry x="400" y="194" width="120" height="60" as="geometry" />
        </mxCell>
        <mxCell id="xdpQrKpkKK69OWnkC5WY-6" value="" style="curved=1;endArrow=classic;html=1;rounded=0;entryX=0;entryY=0.5;entryDx=0;entryDy=0;exitX=0.25;exitY=1;exitDx=0;exitDy=0;" edge="1" parent="1" source="xdpQrKpkKK69OWnkC5WY-3" target="xdpQrKpkKK69OWnkC5WY-5">
          <mxGeometry width="50" height="50" relative="1" as="geometry">
            <mxPoint x="350" y="340" as="sourcePoint" />
            <mxPoint x="400" y="290" as="targetPoint" />
            <Array as="points">
              <mxPoint x="310" y="320" />
              <mxPoint x="330" y="260" />
              <mxPoint x="340" y="220" />
            </Array>
          </mxGeometry>
        </mxCell>
        <mxCell id="xdpQrKpkKK69OWnkC5WY-7" value="CH1" style="text;html=1;align=center;verticalAlign=middle;whiteSpace=wrap;rounded=0;" vertex="1" parent="1">
          <mxGeometry x="350" y="204" width="40" height="20" as="geometry" />
        </mxCell>
      </root>
    </mxGraphModel>
  </diagram>
</mxfile>
